<?xml version="1.0" standalone="no"?>
<!DOCTYPE svg PUBLIC "-//W3C//DTD SVG 20010904//EN"
 "http://www.w3.org/TR/2001/REC-SVG-20010904/DTD/svg10.dtd">
<svg version="1.0" xmlns="http://www.w3.org/2000/svg"
 width="639.000000pt" height="433.000000pt" viewBox="0 0 639.000000 433.000000"
 preserveAspectRatio="xMidYMid meet">

<g transform="translate(0.000000,433.000000) scale(0.100000,-0.100000)"
fill="#fff" stroke="none">
<path d="M3040 4173 c-124 -20 -327 -80 -390 -115 -19 -10 -26 -16 -15 -12
246 90 337 109 540 109 142 0 171 -3 260 -28 55 -14 157 -40 226 -56 177 -42
201 -58 336 -226 62 -77 134 -160 161 -185 144 -131 212 -192 212 -186 0 3
-50 58 -111 123 -61 65 -156 177 -211 250 -149 199 -183 222 -389 262 -57 11
-151 31 -209 45 -89 22 -126 26 -245 25 -77 -1 -151 -4 -165 -6z"/>
<path d="M3700 3967 c0 -7 16 -29 36 -48 20 -18 47 -54 60 -79 34 -65 42 -73
107 -110 32 -18 64 -41 70 -51 8 -13 15 -15 24 -7 21 17 16 48 -8 48 -13 0
-23 10 -30 30 -12 34 -24 38 -37 14 -8 -15 -12 -15 -39 -1 -40 21 -50 35 -62
89 -6 26 -16 58 -23 73 -18 41 -98 75 -98 42z"/>
<path d="M2830 3947 c-74 -31 -83 -37 -116 -76 -25 -30 -29 -44 -31 -100 -1
-36 -5 -87 -8 -114 -8 -55 3 -99 14 -57 6 22 11 16 37 -49 16 -40 42 -86 57
-102 l29 -29 -26 0 c-32 0 -33 -15 -3 -35 33 -21 81 -29 106 -16 32 18 25 37
-17 49 -52 16 -68 36 -82 107 -7 33 -25 78 -40 100 -25 36 -27 47 -25 115 1
41 3 78 4 82 0 5 17 26 37 48 52 57 138 83 254 76 l85 -5 -70 13 c-99 20 -142
19 -205 -7z"/>
<path d="M2857 3836 c-77 -83 -80 -91 -46 -122 18 -16 20 -26 15 -66 -7 -47
-6 -48 49 -108 31 -34 58 -74 62 -90 3 -17 10 -33 15 -36 16 -10 -1 50 -33
121 -28 61 -28 68 -25 194 2 75 -1 131 -6 131 -5 0 -19 -11 -31 -24z"/>
<path d="M3690 3760 c-87 -7 -112 -16 -108 -39 4 -19 38 -28 48 -11 5 8 19 4
46 -15 30 -20 47 -25 72 -21 23 3 48 -2 78 -16 74 -37 73 7 -2 49 -28 16 -38
28 -36 43 2 12 -2 19 -10 18 -7 -1 -47 -4 -88 -8z m0 -27 c10 -17 10 -17 20 0
6 9 15 17 20 17 16 0 12 -40 -4 -46 -16 -6 -66 23 -66 37 0 15 18 10 30 -8z"/>
<path d="M2383 3728 c-11 -13 -30 -41 -43 -63 -48 -80 -22 -226 75 -432 48
-100 57 -131 75 -243 22 -136 40 -161 328 -444 116 -114 164 -186 204 -306
l18 -55 -6 48 c-11 97 -60 205 -133 291 -20 23 -91 94 -159 156 -165 152 -217
222 -237 320 -9 41 -40 152 -70 245 -102 321 -104 340 -55 443 16 34 28 62 26
62 -1 0 -12 -10 -23 -22z"/>
<path d="M4207 3403 c-17 -16 -3 -40 49 -89 55 -50 56 -53 45 -84 -16 -46 6
-26 58 53 46 71 54 104 29 120 -14 9 -27 7 -62 -12 l-44 -24 -27 21 c-29 23
-38 26 -48 15z"/>
<path d="M3835 3216 c-10 -7 -16 -20 -12 -28 3 -9 0 -21 -6 -28 -9 -9 -8 -11
8 -8 11 2 19 10 17 17 -3 13 8 11 75 -12 23 -8 62 -7 145 2 230 26 215 26 195
4 -20 -23 -121 -38 -225 -35 -34 2 -68 -2 -75 -7 -6 -6 -31 -26 -54 -47 -24
-20 -43 -32 -43 -27 0 5 5 14 12 21 15 15 9 15 -79 -2 -42 -8 -70 -9 -67 -4 4
5 -4 8 -17 6 -15 -2 -25 -11 -27 -24 -7 -48 132 -125 232 -128 45 -1 50 1 56
24 4 17 12 24 26 23 40 -6 114 9 134 27 11 9 38 20 59 24 27 4 47 16 65 37 37
43 32 56 -9 25 -32 -25 -94 -56 -111 -56 -4 0 -1 6 5 14 10 11 8 15 -6 19 -12
3 -9 5 9 6 15 0 30 6 33 11 3 6 15 10 26 10 10 0 19 4 19 10 0 9 -9 8 -47 -7
-10 -3 -26 -5 -37 -4 -10 2 -23 -3 -27 -11 -6 -10 -13 -10 -26 -2 -33 20 -19
29 57 34 99 8 141 31 138 78 -3 42 -10 46 -81 49 -46 2 -61 -1 -74 -17 -13
-15 -21 -17 -36 -9 -14 8 -23 6 -38 -7 -15 -14 -21 -14 -34 -4 -8 7 -29 10
-47 8 -35 -6 -99 9 -109 23 -3 5 -14 3 -24 -5z m202 -121 c0 -8 -5 -16 -11
-16 -6 -1 -16 -2 -22 -3 -7 0 -22 -12 -34 -26 l-21 -25 17 33 c10 17 22 33 26
33 4 1 12 2 17 3 5 0 13 4 17 9 10 10 11 9 11 -8z m-177 -99 c0 -2 -8 -10 -17
-17 -16 -13 -17 -12 -4 4 13 16 21 21 21 13z"/>
<path d="M3655 3159 c4 -13 8 -24 9 -24 13 0 41 -27 40 -39 -1 -11 4 -15 15
-12 9 2 50 10 91 17 76 12 115 29 70 29 -20 0 -22 2 -10 10 23 15 2 12 -75 -9
-75 -21 -105 -21 -36 0 37 11 40 14 27 28 -9 8 -41 17 -77 19 -61 5 -61 4 -54
-19z"/>
<path d="M3525 3010 c-4 -6 -32 -27 -63 -47 -49 -32 -54 -38 -34 -41 13 -2 41
6 63 17 22 12 45 21 51 21 6 0 28 -16 49 -35 32 -29 47 -35 82 -35 51 0 91 24
67 39 -8 6 -37 18 -65 27 -27 8 -64 27 -82 40 -34 26 -58 30 -68 14z"/>
<path d="M4191 2954 c-26 -72 -89 -113 -211 -138 -14 -2 9 -4 50 -2 120 3 176
40 187 124 7 51 -10 61 -26 16z"/>
<path d="M3407 2772 c-2 -4 -10 -24 -17 -45 -10 -32 -9 -42 4 -62 9 -14 20
-25 25 -25 14 0 63 81 57 95 -6 17 -63 48 -69 37z"/>
<path d="M3490 2625 c0 -9 -9 -19 -20 -22 -24 -6 -26 -19 -4 -27 23 -9 66 21
62 42 -4 23 -38 29 -38 7z"/>
<path d="M3440 2514 c-6 -14 -10 -36 -10 -50 0 -16 -8 -28 -22 -34 -13 -5 -34
-18 -47 -28 -20 -16 -22 -22 -12 -40 17 -32 103 -31 134 1 13 12 35 28 50 34
30 14 35 31 11 40 -11 4 -14 14 -10 34 4 22 0 32 -21 49 -35 27 -61 26 -73 -6z"/>
<path d="M3272 2388 l3 -53 -48 -9 c-46 -8 -49 -10 -45 -36 4 -27 3 -27 -18
-13 -21 13 -24 13 -34 -7 -6 -12 -10 -29 -8 -38 2 -9 -5 -25 -14 -34 -29 -29
-20 -128 10 -117 19 7 82 91 82 109 0 13 5 17 20 13 20 -5 23 -1 34 50 4 17
13 27 25 27 31 0 46 26 31 55 -7 13 -10 31 -7 39 7 18 -11 66 -26 66 -5 0 -7
-24 -5 -52z"/>
<path d="M4995 2319 c-22 -5 -67 -19 -100 -30 -200 -72 -264 -237 -137 -358
55 -54 132 -89 293 -136 143 -42 215 -78 247 -125 58 -86 -10 -189 -147 -220
-101 -23 -318 -1 -421 44 -12 5 -22 -6 -38 -39 -12 -25 -22 -50 -22 -54 0 -11
70 -35 155 -52 75 -16 313 -17 381 -2 136 31 233 93 274 174 27 52 27 137 0
190 -38 74 -150 137 -336 188 -187 53 -264 104 -264 178 0 129 207 186 450
123 l70 -18 20 45 c11 25 20 49 20 54 0 10 -59 27 -139 40 -69 11 -252 10
-306 -2z"/>
<path d="M635 2313 c-27 -3 -55 -9 -62 -15 -9 -7 -12 -118 -13 -478 l0 -469
55 -6 c99 -13 462 1 540 19 102 25 168 60 219 116 120 135 65 286 -131 361
-35 13 -63 27 -63 31 0 3 12 9 28 12 37 9 121 73 149 115 44 65 25 167 -40
222 -39 33 -120 66 -201 83 -74 15 -334 20 -481 9z m420 -105 c103 -27 152
-78 142 -150 -7 -49 -45 -93 -107 -121 -38 -18 -70 -22 -197 -25 l-153 -4 0
103 c0 57 3 127 6 156 l7 52 46 4 c66 6 209 -2 256 -15z m-35 -409 c210 -34
293 -172 170 -283 -61 -55 -128 -71 -300 -71 l-145 0 -3 110 c-2 61 0 143 3
183 l7 72 101 0 c56 0 131 -5 167 -11z"/>
<path d="M2419 2073 c-67 -137 -145 -297 -174 -358 -29 -60 -77 -159 -107
-220 -30 -60 -57 -118 -61 -127 -6 -16 2 -18 86 -18 l92 0 72 150 71 150 245
0 245 0 73 -150 73 -150 93 0 c51 0 93 3 93 7 0 3 -99 209 -221 457 -122 248
-226 463 -231 479 l-10 27 -109 0 -110 0 -120 -247z m345 -147 c42 -87 76
-163 76 -167 0 -5 -90 -9 -200 -9 -110 0 -200 2 -200 5 0 2 36 80 81 172 44
93 90 192 101 222 l21 54 22 -59 c12 -32 57 -131 99 -218z"/>
<path d="M3620 2313 c-14 -2 -40 -6 -57 -9 l-33 -5 0 -474 0 -475 90 0 90 0 2
208 3 207 59 3 c87 5 219 -14 265 -37 58 -30 86 -73 131 -206 65 -187 54 -175
160 -175 56 0 90 4 90 10 0 6 -8 27 -19 48 -10 20 -35 87 -55 147 -49 142 -83
190 -170 236 l-39 21 55 22 c125 51 188 128 188 228 -1 126 -108 213 -304 248
-55 9 -399 12 -456 3z m443 -113 c109 -34 161 -116 128 -203 -16 -42 -81 -96
-135 -113 -32 -10 -107 -18 -199 -21 l-147 -6 2 179 3 179 55 6 c87 10 225 0
293 -21z"/>
<path d="M1729 1484 c-35 -37 -33 -98 4 -130 32 -28 54 -30 101 -10 37 15 62
67 50 102 -24 67 -108 88 -155 38z"/>
<path d="M605 1160 c453 -43 4302 -43 4715 0 41 4 -1021 7 -2360 7 -1339 0
-2399 -3 -2355 -7z"/>
<path d="M805 980 c-7 -11 -55 -395 -55 -437 0 -35 8 -39 67 -27 l29 6 19 194
19 194 61 -118 c35 -64 82 -151 107 -192 42 -72 45 -75 84 -78 l41 -3 114 190
c63 105 117 190 122 191 4 0 7 -28 8 -62 0 -77 24 -316 32 -324 3 -3 26 -2 51
1 45 7 46 8 41 39 -3 17 -14 118 -25 224 -11 107 -23 198 -26 203 -3 5 -31 9
-64 9 l-58 0 -35 -52 c-58 -88 -113 -181 -152 -257 -21 -39 -38 -71 -40 -69
-1 2 -22 41 -47 88 -25 47 -72 130 -105 185 l-59 100 -62 1 c-34 1 -64 -2 -67
-6z"/>
<path d="M2057 983 c-4 -3 -7 -110 -7 -237 l0 -231 182 2 c101 2 200 3 221 3
33 0 37 3 37 25 l0 25 -171 0 -171 0 4 83 3 82 153 3 c152 3 153 3 150 25 -3
21 -6 22 -155 25 l-153 3 0 69 0 70 138 0 c164 0 182 4 182 36 l0 24 -203 0
c-112 0 -207 -3 -210 -7z"/>
<path d="M3002 983 l-32 -4 2 -232 3 -232 109 -3 c218 -7 340 28 373 106 22
54 1 92 -72 128 l-57 27 29 13 c131 60 93 167 -69 194 -61 9 -218 11 -286 3z
m295 -70 c19 -14 28 -29 28 -49 0 -24 -7 -33 -45 -51 -35 -18 -61 -23 -127
-23 l-83 0 0 59 c0 95 -1 94 106 89 75 -3 99 -8 121 -25z m-20 -189 c48 -16
83 -46 83 -70 0 -7 -11 -26 -25 -42 -30 -36 -91 -52 -196 -52 l-70 0 2 90 2
90 78 0 c46 0 98 -7 126 -16z"/>
<path d="M3957 984 c-4 -4 -7 -110 -7 -236 l0 -228 220 0 220 0 0 25 0 25
-170 0 -171 0 3 83 3 82 153 3 c152 3 153 3 150 25 -3 21 -6 22 -155 25 l-153
3 0 69 0 70 138 0 c162 0 184 4 180 34 -3 20 -8 21 -204 24 -110 1 -203 -1
-207 -4z"/>
<path d="M4872 754 l3 -237 180 1 c99 1 197 1 218 2 34 0 38 3 35 23 -3 22 -5
22 -170 25 l-168 2 -2 208 -3 207 -48 3 -47 3 2 -237z"/>
</g>
</svg>
