<svg width="88" height="88" viewBox="0 0 88 88" fill="none" xmlns="http://www.w3.org/2000/svg">
<g clip-path="url(#clip0_315_1637)">
<rect x="0.273499" y="0.273483" width="87.5156" height="87.5156" rx="17.5031" fill="white"/>
<path fill-rule="evenodd" clip-rule="evenodd" d="M87.7889 0.273529H0.273315V87.7892H87.7889V0.273529ZM44.3116 68.2212C57.5165 68.2212 68.2212 57.5165 68.2212 44.3116C68.2212 31.1067 57.5165 20.402 44.3116 20.402C31.1067 20.402 20.402 31.1067 20.402 44.3116C20.402 57.5165 31.1067 68.2212 44.3116 68.2212ZM30.6517 43.7879C30.6517 43.7879 42.4952 38.7493 46.6028 36.975C48.1774 36.2654 53.5173 33.9944 53.5173 33.9944C53.5173 33.9944 55.9819 33.0009 55.7765 35.4137C55.727 36.1312 55.4276 38.1441 55.0589 40.6237L55.0589 40.6238L55.0588 40.6239C54.917 41.5779 54.7648 42.601 54.6127 43.646C53.7911 48.9686 52.9011 54.7879 52.9011 54.7879C52.9011 54.7879 52.7642 56.4202 51.6004 56.7041C50.4366 56.9879 48.5197 55.7106 48.1774 55.4266C48.118 55.3805 47.8431 55.1943 47.4308 54.915L47.4297 54.9142C45.9393 53.9048 42.6567 51.6814 41.263 50.4589C40.7837 50.0331 40.2361 49.1815 41.3314 48.1879C43.796 45.846 46.7397 42.9363 48.5197 41.0912C49.3412 40.2395 50.1627 38.2525 46.7397 40.6653C41.8791 44.1428 37.0869 47.4073 37.0869 47.4073C37.0869 47.4073 35.9915 48.1169 33.9377 47.4782C31.8839 46.8396 29.4878 45.9879 29.4878 45.9879C29.4878 45.9879 27.8448 44.9234 30.6517 43.7879Z" fill="#34AADF"/>
</g>
<defs>
<clipPath id="clip0_315_1637">
<rect x="0.273499" y="0.273483" width="87.5156" height="87.5156" rx="17.5031" fill="white"/>
</clipPath>
</defs>
</svg>
