<svg width="89" height="88" viewBox="0 0 89 88" fill="none" xmlns="http://www.w3.org/2000/svg">
<g clip-path="url(#clip0_315_1771)">
<rect x="0.546997" width="87.5156" height="87.5156" rx="17.5031" fill="white"/>
<path fill-rule="evenodd" clip-rule="evenodd" d="M88.0626 0H0.546997V87.5156H88.0626V0ZM44.5854 36.058C40.1839 36.058 36.6168 39.6249 36.6168 44.0237C36.6168 48.4226 40.1839 51.9894 44.5854 51.9894C48.9868 51.9894 52.5559 48.4226 52.5559 44.0237C52.5559 39.6249 48.9868 36.058 44.5854 36.058ZM44.5854 56.2936C37.8046 56.2936 32.3081 50.8004 32.3081 44.0237C32.3081 37.247 37.8046 31.7538 44.5854 31.7538C51.3661 31.7538 56.8627 37.247 56.8627 44.0237C56.8627 50.8004 51.3661 56.2936 44.5854 56.2936ZM54.9624 32.8606C54.6474 32.3889 54.4793 31.8344 54.4795 31.2673C54.4802 30.5071 54.7827 29.7783 55.3207 29.2409C55.8587 28.7034 56.5881 28.4014 57.3487 28.401H57.3498C57.9173 28.4013 58.472 28.5696 58.9437 28.8849C59.4154 29.2002 59.7829 29.6482 59.9999 30.1722C60.2168 30.6962 60.2734 31.2728 60.1625 31.829C60.0516 32.3852 59.7781 32.896 59.3767 33.2968C58.9753 33.6977 58.4639 33.9706 57.9073 34.081C57.3507 34.1914 56.7738 34.1344 56.2497 33.9172C55.7255 33.6999 55.2775 33.3322 54.9624 32.8606ZM30.4858 62.6519C31.3278 62.9797 32.5948 63.3678 34.9259 63.4739C37.4454 63.5897 38.2004 63.6128 44.5854 63.6128C50.9704 63.6128 51.7275 63.5897 54.2477 63.4739C56.5788 63.368 57.8462 62.9799 58.6878 62.6519C59.8041 62.2176 60.6017 61.6995 61.438 60.8645C62.2743 60.0295 62.7918 59.2335 63.2264 58.1179C63.5526 57.2764 63.9428 56.0101 64.0489 53.6805C64.1648 51.1596 64.188 50.4051 64.188 44.0239C64.188 37.6427 64.1648 36.8882 64.0489 34.3674C63.9429 32.0377 63.5547 30.771 63.2264 29.9299C62.7918 28.8143 62.2754 28.0172 61.438 27.1814C60.6006 26.3457 59.8041 25.8265 58.6878 25.394C57.8437 25.0691 56.5788 24.6781 54.2477 24.5721C51.7253 24.4581 50.9675 24.4331 44.5854 24.4331C38.2032 24.4331 37.4462 24.4562 34.9259 24.5721C32.5948 24.678 31.3274 25.066 30.4858 25.394C29.3676 25.8265 28.5719 26.3445 27.7356 27.1814C26.8994 28.0183 26.3818 28.8143 25.9472 29.9299C25.622 30.7735 25.2309 32.0377 25.1247 34.3674C25.0107 36.8882 24.9857 37.6427 24.9857 44.0239C24.9857 50.4051 25.0088 51.1617 25.1247 53.6805C25.2307 56.0101 25.619 57.2768 25.9472 58.1179C26.3799 59.2335 26.8982 60.0288 27.7356 60.8645C28.573 61.7003 29.3695 62.2176 30.4858 62.6519ZM28.9244 21.3831C30.4433 20.7924 32.1826 20.389 34.7279 20.2732C37.2786 20.1554 38.0942 20.1285 44.5873 20.1285C51.0804 20.1285 51.8954 20.1574 54.4447 20.2732C56.9881 20.3871 58.7265 20.7924 60.2483 21.3831C61.8184 21.9931 63.1532 22.8093 64.4818 24.1393C65.8104 25.4692 66.6275 26.801 67.2396 28.3722C67.8306 29.8902 68.2342 31.6282 68.3502 34.1722C68.4661 36.72 68.493 37.5345 68.493 44.0237C68.493 50.5129 68.4661 51.3255 68.3502 53.8753C68.2361 56.419 67.8306 58.1563 67.2396 59.6753C66.6275 61.2465 65.8125 62.5804 64.4818 63.9082C63.1511 65.236 61.8184 66.0526 60.2463 66.6644C58.7265 67.2551 56.9883 67.6584 54.4428 67.7742C51.8935 67.892 51.0785 67.919 44.5854 67.919C38.0923 67.919 37.2786 67.8901 34.7279 67.7742C32.1826 67.6584 30.4462 67.2551 28.9244 66.6644C27.3514 66.0526 26.0195 65.2354 24.689 63.9082C23.3585 62.581 22.5415 61.2465 21.9312 59.6753C21.3401 58.1563 20.9365 56.4192 20.8206 53.8753C20.7028 51.3274 20.6758 50.5129 20.6758 44.0237C20.6758 37.5345 20.7028 36.72 20.8206 34.1722C20.9365 31.6284 21.3401 29.8911 21.9312 28.3722C22.5415 26.8 23.3583 25.4671 24.689 24.1393C26.0197 22.8115 27.3514 21.9931 28.9244 21.3831Z" fill="url(#paint0_linear_315_1771)"/>
</g>
<defs>
<linearGradient id="paint0_linear_315_1771" x1="67.574" y1="67.919" x2="19.7835" y2="20.1017" gradientUnits="userSpaceOnUse">
<stop stop-color="#FBE18A"/>
<stop offset="0.21" stop-color="#FCBB45"/>
<stop offset="0.38" stop-color="#F75274"/>
<stop offset="0.52" stop-color="#D53692"/>
<stop offset="0.74" stop-color="#8F39CE"/>
<stop offset="1" stop-color="#5B4FE9"/>
</linearGradient>
<clipPath id="clip0_315_1771">
<rect x="0.546997" width="87.5156" height="87.5156" rx="17.5031" fill="white"/>
</clipPath>
</defs>
</svg>
