<?xml version="1.0" encoding="UTF-8" standalone="no"?><svg viewBox="0 0 852 800" xmlns="http://www.w3.org/2000/svg" xmlns:xlink="http://www.w3.org/1999/xlink"><style>:root>svg{display:none}:root>svg:target{display:block}</style><svg viewBox="0 0 32 32" id="arrow" xmlns="http://www.w3.org/2000/svg"><path d="M22 15H11.414l4.121-4.121a.999.999 0 1 0-1.414-1.414l-5.656 5.656a.981.981 0 0 0-.26.879.981.981 0 0 0 .26.879l5.656 5.661a1 1 0 0 0 1.414 0c.391-.39.391-1.03 0-1.42L11.414 17H22a1 1 0 1 0 0-2Zm8 13c0 1.1-.896 2-2 2H4c-1.104 0-2-.9-2-2V4a2 2 0 0 1 2-2h24a2 2 0 0 1 2 2v24ZM28 0H4a4 4 0 0 0-4 4v24a4 4 0 0 0 4 4h24a4 4 0 0 0 4-4V4a4 4 0 0 0-4-4Z" fill="#000" fill-rule="evenodd"/></svg><svg viewBox="0 0 24 24" id="bank" xmlns="http://www.w3.org/2000/svg"><path d="M19.505 17.943v-7.581a1.491 1.491 0 0 0 1.39-1.12 1.468 1.468 0 0 0-.7-1.68l-7.45-4.3a1.521 1.521 0 0 0-1.49 0l-7.45 4.3a1.468 1.468 0 0 0-.7 1.68 1.487 1.487 0 0 0 1.45 1.12h.13v7.57h-.12a1.5 1.5 0 0 0 0 3h14.87a1.5 1.5 0 0 0 .07-2.989ZM4.555 9.362a.505.505 0 0 1-.25-.94l7.45-4.289a.474.474 0 0 1 .49 0L19.7 8.422a.5.5 0 0 1-.25.94Zm13.95 1v7.57H14.9v-7.57Zm-4.61 0v7.57h-3.61v-7.57Zm-4.61 0v7.57h-3.6v-7.57Zm10.15 9.57H4.565a.5.5 0 0 1-.5-.5.5.5 0 0 1 .5-.5h14.87a.5.5 0 0 1 .5.5.5.5 0 0 1-.5.5Z"/></svg><svg viewBox="0 0 24 24" id="company" xmlns="http://www.w3.org/2000/svg"><path d="M17.438 21.937H6.562a2.5 2.5 0 0 1-2.5-2.5v-.827c0-3.969 3.561-7.2 7.938-7.2s7.938 3.229 7.938 7.2v.827a2.5 2.5 0 0 1-2.5 2.5ZM12 12.412c-3.826 0-6.938 2.78-6.938 6.2v.827a1.5 1.5 0 0 0 1.5 1.5h10.876a1.5 1.5 0 0 0 1.5-1.5v-.829c0-3.418-3.112-6.198-6.938-6.198ZM12 9.911a3.924 3.924 0 1 1 3.923-3.924A3.927 3.927 0 0 1 12 9.911Zm0-6.847a2.924 2.924 0 1 0 2.923 2.923A2.926 2.926 0 0 0 12 3.064Z"/></svg><svg fill="none" viewBox="0 0 32 32" id="instagram" xmlns="http://www.w3.org/2000/svg"><path d="M27 0H5a5 5 0 0 0-5 5v22a5 5 0 0 0 5 5h22a5 5 0 0 0 5-5V5a5 5 0 0 0-5-5Z" fill="#F00073"/><path d="M16 9.2h3.4c.8 0 1.2.2 1.5.3.4.2.7.3 1 .6.3.3.5.6.6 1 .1.3.2.7.3 1.5v6.8c0 .8-.2 1.2-.3 1.5-.2.4-.3.7-.6 1-.3.3-.6.5-1 .6-.3.1-.7.2-1.5.3h-6.8c-.8 0-1.2-.2-1.5-.3-.4-.2-.7-.3-1-.6-.3-.3-.5-.6-.6-1-.1-.3-.2-.7-.3-1.5v-6.8c0-.8.2-1.2.3-1.5.2-.4.3-.7.6-1 .3-.3.6-.5 1-.6.3-.1.7-.2 1.5-.3H16Zm0-1.5h-3.4c-.9 0-1.5.2-2 .4s-1 .5-1.5 1-.7.9-1 1.5c-.2.5-.3 1.1-.4 2v6.8c0 .9.2 1.5.4 2s.5 1 1 1.5.9.7 1.5 1c.5.2 1.1.3 2 .4h6.8c.9 0 1.5-.2 2-.4s1-.5 1.5-1 .7-.9 1-1.5c.2-.5.3-1.1.4-2v-6.8c0-.9-.2-1.5-.4-2s-.5-1-1-1.5-.9-.7-1.5-1c-.5-.2-1.1-.3-2-.4H16Z" fill="#fff"/><path d="M16 11.7c-2.4 0-4.3 1.9-4.3 4.3s1.9 4.3 4.3 4.3 4.3-1.9 4.3-4.3-1.9-4.3-4.3-4.3Zm0 7.1c-1.5 0-2.8-1.2-2.8-2.8 0-1.5 1.2-2.8 2.8-2.8 1.5 0 2.8 1.2 2.8 2.8 0 1.5-1.3 2.8-2.8 2.8ZM20.4 12.6a1 1 0 1 0 0-2 1 1 0 0 0 0 2Z" fill="#fff"/></svg><svg version="1.0" viewBox="0 0 639 433" id="logo" xmlns="http://www.w3.org/2000/svg"><path d="M304 15.7c-12.4 2-32.7 8-39 11.5-1.9 1-2.6 1.6-1.5 1.2 24.6-9 33.7-10.9 54-10.9 14.2 0 17.1.3 26 2.8 5.5 1.4 15.7 4 22.6 5.6 17.7 4.2 20.1 5.8 33.6 22.6 6.2 7.7 13.4 16 16.1 18.5C430.2 80.1 437 86.2 437 85.6c0-.3-5-5.8-11.1-12.3-6.1-6.5-15.6-17.7-21.1-25-14.9-19.9-18.3-22.2-38.9-26.2-5.7-1.1-15.1-3.1-20.9-4.5-8.9-2.2-12.6-2.6-24.5-2.5-7.7.1-15.1.4-16.5.6z"/><path d="M370 36.3c0 .7 1.6 2.9 3.6 4.8 2 1.8 4.7 5.4 6 7.9 3.4 6.5 4.2 7.3 10.7 11 3.2 1.8 6.4 4.1 7 5.1.8 1.3 1.5 1.5 2.4.7 2.1-1.7 1.6-4.8-.8-4.8-1.3 0-2.3-1-3-3-1.2-3.4-2.4-3.8-3.7-1.4-.8 1.5-1.2 1.5-3.9.1-4-2.1-5-3.5-6.2-8.9-.6-2.6-1.6-5.8-2.3-7.3-1.8-4.1-9.8-7.5-9.8-4.2zM283 38.3c-7.4 3.1-8.3 3.7-11.6 7.6-2.5 3-2.9 4.4-3.1 10-.1 3.6-.5 8.7-.8 11.4-.8 5.5.3 9.9 1.4 5.7.6-2.2 1.1-1.6 3.7 4.9 1.6 4 4.2 8.6 5.7 10.2l2.9 2.9h-2.6c-3.2 0-3.3 1.5-.3 3.5 3.3 2.1 8.1 2.9 10.6 1.6 3.2-1.8 2.5-3.7-1.7-4.9-5.2-1.6-6.8-3.6-8.2-10.7-.7-3.3-2.5-7.8-4-10-2.5-3.6-2.7-4.7-2.5-11.5.1-4.1.3-7.8.4-8.2 0-.5 1.7-2.6 3.7-4.8 5.2-5.7 13.8-8.3 25.4-7.6l8.5.5-7-1.3c-9.9-2-14.2-1.9-20.5.7z"/><path d="M285.7 49.4c-7.7 8.3-8 9.1-4.6 12.2 1.8 1.6 2 2.6 1.5 6.6-.7 4.7-.6 4.8 4.9 10.8 3.1 3.4 5.8 7.4 6.2 9 .3 1.7 1 3.3 1.5 3.6 1.6 1-.1-5-3.3-12.1-2.8-6.1-2.8-6.8-2.5-19.4.2-7.5-.1-13.1-.6-13.1s-1.9 1.1-3.1 2.4zM369 57c-8.7.7-11.2 1.6-10.8 3.9.4 1.9 3.8 2.8 4.8 1.1.5-.8 1.9-.4 4.6 1.5 3 2 4.7 2.5 7.2 2.1 2.3-.3 4.8.2 7.8 1.6 7.4 3.7 7.3-.7-.2-4.9-2.8-1.6-3.8-2.8-3.6-4.3.2-1.2-.2-1.9-1-1.8-.7.1-4.7.4-8.8.8zm0 2.7c1 1.7 1 1.7 2 0 .6-.9 1.5-1.7 2-1.7 1.6 0 1.2 4-.4 4.6-1.6.6-6.6-2.3-6.6-3.7 0-1.5 1.8-1 3 .8zM238.3 60.2c-1.1 1.3-3 4.1-4.3 6.3-4.8 8-2.2 22.6 7.5 43.2 4.8 10 5.7 13.1 7.5 24.3 2.2 13.6 4 16.1 32.8 44.4 11.6 11.4 16.4 18.6 20.4 30.6l1.8 5.5-.6-4.8c-1.1-9.7-6-20.5-13.3-29.1-2-2.3-9.1-9.4-15.9-15.6-16.5-15.2-21.7-22.2-23.7-32-.9-4.1-4-15.2-7-24.5-10.2-32.1-10.4-34-5.5-44.3 1.6-3.4 2.8-6.2 2.6-6.2-.1 0-1.2 1-2.3 2.2zM420.7 92.7c-1.7 1.6-.3 4 4.9 8.9 5.5 5 5.6 5.3 4.5 8.4-1.6 4.6.6 2.6 5.8-5.3 4.6-7.1 5.4-10.4 2.9-12-1.4-.9-2.7-.7-6.2 1.2l-4.4 2.4-2.7-2.1c-2.9-2.3-3.8-2.6-4.8-1.5zM383.5 111.4c-1 .7-1.6 2-1.2 2.8.3.9 0 2.1-.6 2.8-.9.9-.8 1.1.8.8 1.1-.2 1.9-1 1.7-1.7-.3-1.3.8-1.1 7.5 1.2 2.3.8 6.2.7 14.5-.2 23-2.6 21.5-2.6 19.5-.4-2 2.3-12.1 3.8-22.5 3.5-3.4-.2-6.8.2-7.5.7-.6.6-3.1 2.6-5.4 4.7-2.4 2-4.3 3.2-4.3 2.7s.5-1.4 1.2-2.1c1.5-1.5.9-1.5-7.9.2-4.2.8-7 .9-6.7.4.4-.5-.4-.8-1.7-.6-1.5.2-2.5 1.1-2.7 2.4-.7 4.8 13.2 12.5 23.2 12.8 4.5.1 5-.1 5.6-2.4.4-1.7 1.2-2.4 2.6-2.3 4 .6 11.4-.9 13.4-2.7 1.1-.9 3.8-2 5.9-2.4 2.7-.4 4.7-1.6 6.5-3.7 3.7-4.3 3.2-5.6-.9-2.5-3.2 2.5-9.4 5.6-11.1 5.6-.4 0-.1-.6.5-1.4 1-1.1.8-1.5-.6-1.9-1.2-.3-.9-.5.9-.6 1.5 0 3-.6 3.3-1.1.3-.6 1.5-1 2.6-1 1 0 1.9-.4 1.9-1 0-.9-.9-.8-4.7.7-1 .3-2.6.5-3.7.4-1-.2-2.3.3-2.7 1.1-.6 1-1.3 1-2.6.2-3.3-2-1.9-2.9 5.7-3.4 9.9-.8 14.1-3.1 13.8-7.8-.3-4.2-1-4.6-8.1-4.9-4.6-.2-6.1.1-7.4 1.7-1.3 1.5-2.1 1.7-3.6.9-1.4-.8-2.3-.6-3.8.7-1.5 1.4-2.1 1.4-3.4.4-.8-.7-2.9-1-4.7-.8-3.5.6-9.9-.9-10.9-2.3-.3-.5-1.4-.3-2.4.5zm20.2 12.1c0 .8-.5 1.6-1.1 1.6-.6.1-1.6.2-2.2.3-.7 0-2.2 1.2-3.4 2.6l-2.1 2.5 1.7-3.3c1-1.7 2.2-3.3 2.6-3.3.4-.1 1.2-.2 1.7-.3.5 0 1.3-.4 1.7-.9 1-1 1.1-.9 1.1.8zm-17.7 9.9c0 .2-.8 1-1.7 1.7-1.6 1.3-1.7 1.2-.4-.4 1.3-1.6 2.1-2.1 2.1-1.3z"/><path d="M365.5 117.1c.4 1.3.8 2.4.9 2.4 1.3 0 4.1 2.7 4 3.9-.1 1.1.4 1.5 1.5 1.2.9-.2 5-1 9.1-1.7 7.6-1.2 11.5-2.9 7-2.9-2 0-2.2-.2-1-1 2.3-1.5.2-1.2-7.5.9-7.5 2.1-10.5 2.1-3.6 0 3.7-1.1 4-1.4 2.7-2.8-.9-.8-4.1-1.7-7.7-1.9-6.1-.5-6.1-.4-5.4 1.9zM352.5 132c-.4.6-3.2 2.7-6.3 4.7-4.9 3.2-5.4 3.8-3.4 4.1 1.3.2 4.1-.6 6.3-1.7 2.2-1.2 4.5-2.1 5.1-2.1.6 0 2.8 1.6 4.9 3.5 3.2 2.9 4.7 3.5 8.2 3.5 5.1 0 9.1-2.4 6.7-3.9-.8-.6-3.7-1.8-6.5-2.7-2.7-.8-6.4-2.7-8.2-4-3.4-2.6-5.8-3-6.8-1.4zM419.1 137.6c-2.6 7.2-8.9 11.3-21.1 13.8-1.4.2.9.4 5 .2 12-.3 17.6-4 18.7-12.4.7-5.1-1-6.1-2.6-1.6zM340.7 155.8c-.2.4-1 2.4-1.7 4.5-1 3.2-.9 4.2.4 6.2.9 1.4 2 2.5 2.5 2.5 1.4 0 6.3-8.1 5.7-9.5-.6-1.7-6.3-4.8-6.9-3.7zM349 170.5c0 .9-.9 1.9-2 2.2-2.4.6-2.6 1.9-.4 2.7 2.3.9 6.6-2.1 6.2-4.2-.4-2.3-3.8-2.9-3.8-.7zM344 181.6c-.6 1.4-1 3.6-1 5 0 1.6-.8 2.8-2.2 3.4-1.3.5-3.4 1.8-4.7 2.8-2 1.6-2.2 2.2-1.2 4 1.7 3.2 10.3 3.1 13.4-.1 1.3-1.2 3.5-2.8 5-3.4 3-1.4 3.5-3.1 1.1-4-1.1-.4-1.4-1.4-1-3.4.4-2.2 0-3.2-2.1-4.9-3.5-2.7-6.1-2.6-7.3.6zM327.2 194.2l.3 5.3-4.8.9c-4.6.8-4.9 1-4.5 3.6.4 2.7.3 2.7-1.8 1.3-2.1-1.3-2.4-1.3-3.4.7-.6 1.2-1 2.9-.8 3.8.2.9-.5 2.5-1.4 3.4-2.9 2.9-2 12.8 1 11.7 1.9-.7 8.2-9.1 8.2-10.9 0-1.3.5-1.7 2-1.3 2 .5 2.3.1 3.4-5 .4-1.7 1.3-2.7 2.5-2.7 3.1 0 4.6-2.6 3.1-5.5-.7-1.3-1-3.1-.7-3.9.7-1.8-1.1-6.6-2.6-6.6-.5 0-.7 2.4-.5 5.2zM499.5 201.1c-2.2.5-6.7 1.9-10 3-20 7.2-26.4 23.7-13.7 35.8 5.5 5.4 13.2 8.9 29.3 13.6 14.3 4.2 21.5 7.8 24.7 12.5 5.8 8.6-1 18.9-14.7 22-10.1 2.3-31.8.1-42.1-4.4-1.2-.5-2.2.6-3.8 3.9-1.2 2.5-2.2 5-2.2 5.4 0 1.1 7 3.5 15.5 5.2 7.5 1.6 31.3 1.7 38.1.2 13.6-3.1 23.3-9.3 27.4-17.4 2.7-5.2 2.7-13.7 0-19-3.8-7.4-15-13.7-33.6-18.8-18.7-5.3-26.4-10.4-26.4-17.8 0-12.9 20.7-18.6 45-12.3l7 1.8 2-4.5c1.1-2.5 2-4.9 2-5.4 0-1-5.9-2.7-13.9-4-6.9-1.1-25.2-1-30.6.2zM63.5 201.7c-2.7.3-5.5.9-6.2 1.5-.9.7-1.2 11.8-1.3 47.8v46.9l5.5.6c9.9 1.3 46.2-.1 54-1.9 10.2-2.5 16.8-6 21.9-11.6 12-13.5 6.5-28.6-13.1-36.1-3.5-1.3-6.3-2.7-6.3-3.1 0-.3 1.2-.9 2.8-1.2 3.7-.9 12.1-7.3 14.9-11.5 4.4-6.5 2.5-16.7-4-22.2-3.9-3.3-12-6.6-20.1-8.3-7.4-1.5-33.4-2-48.1-.9zm42 10.5c10.3 2.7 15.2 7.8 14.2 15-.7 4.9-4.5 9.3-10.7 12.1-3.8 1.8-7 2.2-19.7 2.5l-15.3.4v-10.3c0-5.7.3-12.7.6-15.6l.7-5.2 4.6-.4c6.6-.6 20.9.2 25.6 1.5zm-3.5 40.9c21 3.4 29.3 17.2 17 28.3-6.1 5.5-12.8 7.1-30 7.1H74.5l-.3-11c-.2-6.1 0-14.3.3-18.3l.7-7.2h10.1c5.6 0 13.1.5 16.7 1.1zM241.9 225.7c-6.7 13.7-14.5 29.7-17.4 35.8-2.9 6-7.7 15.9-10.7 22-3 6-5.7 11.8-6.1 12.7-.6 1.6.2 1.8 8.6 1.8h9.2l7.2-15 7.1-15h49l7.3 15 7.3 15h9.3c5.1 0 9.3-.3 9.3-.7 0-.3-9.9-20.9-22.1-45.7-12.2-24.8-22.6-46.3-23.1-47.9l-1-2.7h-21.9l-12 24.7zm34.5 14.7c4.2 8.7 7.6 16.3 7.6 16.7 0 .5-9 .9-20 .9s-20-.2-20-.5c0-.2 3.6-8 8.1-17.2 4.4-9.3 9-19.2 10.1-22.2l2.1-5.4 2.2 5.9c1.2 3.2 5.7 13.1 9.9 21.8zM362 201.7c-1.4.2-4 .6-5.7.9l-3.3.5V298h18l.2-20.8.3-20.7 5.9-.3c8.7-.5 21.9 1.4 26.5 3.7 5.8 3 8.6 7.3 13.1 20.6 6.5 18.7 5.4 17.5 16 17.5 5.6 0 9-.4 9-1s-.8-2.7-1.9-4.8c-1-2-3.5-8.7-5.5-14.7-4.9-14.2-8.3-19-17-23.6l-3.9-2.1 5.5-2.2c12.5-5.1 18.8-12.8 18.8-22.8-.1-12.6-10.8-21.3-30.4-24.8-5.5-.9-39.9-1.2-45.6-.3zm44.3 11.3c10.9 3.4 16.1 11.6 12.8 20.3-1.6 4.2-8.1 9.6-13.5 11.3-3.2 1-10.7 1.8-19.9 2.1l-14.7.6.2-17.9.3-17.9 5.5-.6c8.7-1 22.5 0 29.3 2.1zM172.9 284.6c-3.5 3.7-3.3 9.8.4 13 3.2 2.8 5.4 3 10.1 1 3.7-1.5 6.2-6.7 5-10.2-2.4-6.7-10.8-8.8-15.5-3.8zM60.5 317c45.3 4.3 430.2 4.3 471.5 0 4.1-.4-102.1-.7-236-.7s-239.9.3-235.5.7zM80.5 335c-.7 1.1-5.5 39.5-5.5 43.7 0 3.5.8 3.9 6.7 2.7l2.9-.6 1.9-19.4 1.9-19.4 6.1 11.8c3.5 6.4 8.2 15.1 10.7 19.2 4.2 7.2 4.5 7.5 8.4 7.8l4.1.3 11.4-19c6.3-10.5 11.7-19 12.2-19.1.4 0 .7 2.8.8 6.2 0 7.7 2.4 31.6 3.2 32.4.3.3 2.6.2 5.1-.1 4.5-.7 4.6-.8 4.1-3.9-.3-1.7-1.4-11.8-2.5-22.4-1.1-10.7-2.3-19.8-2.6-20.3-.3-.5-3.1-.9-6.4-.9h-5.8l-3.5 5.2c-5.8 8.8-11.3 18.1-15.2 25.7-2.1 3.9-3.8 7.1-4 6.9-.1-.2-2.2-4.1-4.7-8.8-2.5-4.7-7.2-13-10.5-18.5l-5.9-10-6.2-.1c-3.4-.1-6.4.2-6.7.6zM205.7 334.7c-.4.3-.7 11-.7 23.7v23.1l18.2-.2c10.1-.2 20-.3 22.1-.3 3.3 0 3.7-.3 3.7-2.5V376h-34.2l.4-8.3.3-8.2 15.3-.3c15.2-.3 15.3-.3 15-2.5-.3-2.1-.6-2.2-15.5-2.5l-15.3-.3V340h13.8c16.4 0 18.2-.4 18.2-3.6V334h-20.3c-11.2 0-20.7.3-21 .7zM300.2 334.7l-3.2.4.2 23.2.3 23.2 10.9.3c21.8.7 34-2.8 37.3-10.6 2.2-5.4.1-9.2-7.2-12.8l-5.7-2.7 2.9-1.3c13.1-6 9.3-16.7-6.9-19.4-6.1-.9-21.8-1.1-28.6-.3zm29.5 7c1.9 1.4 2.8 2.9 2.8 4.9 0 2.4-.7 3.3-4.5 5.1-3.5 1.8-6.1 2.3-12.7 2.3H307v-5.9c0-9.5-.1-9.4 10.6-8.9 7.5.3 9.9.8 12.1 2.5zm-2 18.9c4.8 1.6 8.3 4.6 8.3 7 0 .7-1.1 2.6-2.5 4.2-3 3.6-9.1 5.2-19.6 5.2h-7l.2-9 .2-9h7.8c4.6 0 9.8.7 12.6 1.6zM395.7 334.6c-.4.4-.7 11-.7 23.6V381h44v-5h-34.1l.3-8.3.3-8.2 15.3-.3c15.2-.3 15.3-.3 15-2.5-.3-2.1-.6-2.2-15.5-2.5l-15.3-.3V340h13.8c16.2 0 18.4-.4 18-3.4-.3-2-.8-2.1-20.4-2.4-11-.1-20.3.1-20.7.4zM487.2 357.6l.3 23.7 18-.1c9.9-.1 19.7-.1 21.8-.2 3.4 0 3.8-.3 3.5-2.3-.3-2.2-.5-2.2-17-2.5L497 376l-.2-20.8-.3-20.7-4.8-.3-4.7-.3.2 23.7z"/></svg><svg version="1.0" viewBox="0 0 639 433" id="logoWhite" xmlns="http://www.w3.org/2000/svg"><g fill="#fff"><path d="M304 15.7c-12.4 2-32.7 8-39 11.5-1.9 1-2.6 1.6-1.5 1.2 24.6-9 33.7-10.9 54-10.9 14.2 0 17.1.3 26 2.8 5.5 1.4 15.7 4 22.6 5.6 17.7 4.2 20.1 5.8 33.6 22.6 6.2 7.7 13.4 16 16.1 18.5C430.2 80.1 437 86.2 437 85.6c0-.3-5-5.8-11.1-12.3-6.1-6.5-15.6-17.7-21.1-25-14.9-19.9-18.3-22.2-38.9-26.2-5.7-1.1-15.1-3.1-20.9-4.5-8.9-2.2-12.6-2.6-24.5-2.5-7.7.1-15.1.4-16.5.6z"/><path d="M370 36.3c0 .7 1.6 2.9 3.6 4.8 2 1.8 4.7 5.4 6 7.9 3.4 6.5 4.2 7.3 10.7 11 3.2 1.8 6.4 4.1 7 5.1.8 1.3 1.5 1.5 2.4.7 2.1-1.7 1.6-4.8-.8-4.8-1.3 0-2.3-1-3-3-1.2-3.4-2.4-3.8-3.7-1.4-.8 1.5-1.2 1.5-3.9.1-4-2.1-5-3.5-6.2-8.9-.6-2.6-1.6-5.8-2.3-7.3-1.8-4.1-9.8-7.5-9.8-4.2zM283 38.3c-7.4 3.1-8.3 3.7-11.6 7.6-2.5 3-2.9 4.4-3.1 10-.1 3.6-.5 8.7-.8 11.4-.8 5.5.3 9.9 1.4 5.7.6-2.2 1.1-1.6 3.7 4.9 1.6 4 4.2 8.6 5.7 10.2l2.9 2.9h-2.6c-3.2 0-3.3 1.5-.3 3.5 3.3 2.1 8.1 2.9 10.6 1.6 3.2-1.8 2.5-3.7-1.7-4.9-5.2-1.6-6.8-3.6-8.2-10.7-.7-3.3-2.5-7.8-4-10-2.5-3.6-2.7-4.7-2.5-11.5.1-4.1.3-7.8.4-8.2 0-.5 1.7-2.6 3.7-4.8 5.2-5.7 13.8-8.3 25.4-7.6l8.5.5-7-1.3c-9.9-2-14.2-1.9-20.5.7z"/><path d="M285.7 49.4c-7.7 8.3-8 9.1-4.6 12.2 1.8 1.6 2 2.6 1.5 6.6-.7 4.7-.6 4.8 4.9 10.8 3.1 3.4 5.8 7.4 6.2 9 .3 1.7 1 3.3 1.5 3.6 1.6 1-.1-5-3.3-12.1-2.8-6.1-2.8-6.8-2.5-19.4.2-7.5-.1-13.1-.6-13.1s-1.9 1.1-3.1 2.4zM369 57c-8.7.7-11.2 1.6-10.8 3.9.4 1.9 3.8 2.8 4.8 1.1.5-.8 1.9-.4 4.6 1.5 3 2 4.7 2.5 7.2 2.1 2.3-.3 4.8.2 7.8 1.6 7.4 3.7 7.3-.7-.2-4.9-2.8-1.6-3.8-2.8-3.6-4.3.2-1.2-.2-1.9-1-1.8-.7.1-4.7.4-8.8.8zm0 2.7c1 1.7 1 1.7 2 0 .6-.9 1.5-1.7 2-1.7 1.6 0 1.2 4-.4 4.6-1.6.6-6.6-2.3-6.6-3.7 0-1.5 1.8-1 3 .8zM238.3 60.2c-1.1 1.3-3 4.1-4.3 6.3-4.8 8-2.2 22.6 7.5 43.2 4.8 10 5.7 13.1 7.5 24.3 2.2 13.6 4 16.1 32.8 44.4 11.6 11.4 16.4 18.6 20.4 30.6l1.8 5.5-.6-4.8c-1.1-9.7-6-20.5-13.3-29.1-2-2.3-9.1-9.4-15.9-15.6-16.5-15.2-21.7-22.2-23.7-32-.9-4.1-4-15.2-7-24.5-10.2-32.1-10.4-34-5.5-44.3 1.6-3.4 2.8-6.2 2.6-6.2-.1 0-1.2 1-2.3 2.2zM420.7 92.7c-1.7 1.6-.3 4 4.9 8.9 5.5 5 5.6 5.3 4.5 8.4-1.6 4.6.6 2.6 5.8-5.3 4.6-7.1 5.4-10.4 2.9-12-1.4-.9-2.7-.7-6.2 1.2l-4.4 2.4-2.7-2.1c-2.9-2.3-3.8-2.6-4.8-1.5zM383.5 111.4c-1 .7-1.6 2-1.2 2.8.3.9 0 2.1-.6 2.8-.9.9-.8 1.1.8.8 1.1-.2 1.9-1 1.7-1.7-.3-1.3.8-1.1 7.5 1.2 2.3.8 6.2.7 14.5-.2 23-2.6 21.5-2.6 19.5-.4-2 2.3-12.1 3.8-22.5 3.5-3.4-.2-6.8.2-7.5.7-.6.6-3.1 2.6-5.4 4.7-2.4 2-4.3 3.2-4.3 2.7s.5-1.4 1.2-2.1c1.5-1.5.9-1.5-7.9.2-4.2.8-7 .9-6.7.4.4-.5-.4-.8-1.7-.6-1.5.2-2.5 1.1-2.7 2.4-.7 4.8 13.2 12.5 23.2 12.8 4.5.1 5-.1 5.6-2.4.4-1.7 1.2-2.4 2.6-2.3 4 .6 11.4-.9 13.4-2.7 1.1-.9 3.8-2 5.9-2.4 2.7-.4 4.7-1.6 6.5-3.7 3.7-4.3 3.2-5.6-.9-2.5-3.2 2.5-9.4 5.6-11.1 5.6-.4 0-.1-.6.5-1.4 1-1.1.8-1.5-.6-1.9-1.2-.3-.9-.5.9-.6 1.5 0 3-.6 3.3-1.1.3-.6 1.5-1 2.6-1 1 0 1.9-.4 1.9-1 0-.9-.9-.8-4.7.7-1 .3-2.6.5-3.7.4-1-.2-2.3.3-2.7 1.1-.6 1-1.3 1-2.6.2-3.3-2-1.9-2.9 5.7-3.4 9.9-.8 14.1-3.1 13.8-7.8-.3-4.2-1-4.6-8.1-4.9-4.6-.2-6.1.1-7.4 1.7-1.3 1.5-2.1 1.7-3.6.9-1.4-.8-2.3-.6-3.8.7-1.5 1.4-2.1 1.4-3.4.4-.8-.7-2.9-1-4.7-.8-3.5.6-9.9-.9-10.9-2.3-.3-.5-1.4-.3-2.4.5zm20.2 12.1c0 .8-.5 1.6-1.1 1.6-.6.1-1.6.2-2.2.3-.7 0-2.2 1.2-3.4 2.6l-2.1 2.5 1.7-3.3c1-1.7 2.2-3.3 2.6-3.3.4-.1 1.2-.2 1.7-.3.5 0 1.3-.4 1.7-.9 1-1 1.1-.9 1.1.8zm-17.7 9.9c0 .2-.8 1-1.7 1.7-1.6 1.3-1.7 1.2-.4-.4 1.3-1.6 2.1-2.1 2.1-1.3z"/><path d="M365.5 117.1c.4 1.3.8 2.4.9 2.4 1.3 0 4.1 2.7 4 3.9-.1 1.1.4 1.5 1.5 1.2.9-.2 5-1 9.1-1.7 7.6-1.2 11.5-2.9 7-2.9-2 0-2.2-.2-1-1 2.3-1.5.2-1.2-7.5.9-7.5 2.1-10.5 2.1-3.6 0 3.7-1.1 4-1.4 2.7-2.8-.9-.8-4.1-1.7-7.7-1.9-6.1-.5-6.1-.4-5.4 1.9zM352.5 132c-.4.6-3.2 2.7-6.3 4.7-4.9 3.2-5.4 3.8-3.4 4.1 1.3.2 4.1-.6 6.3-1.7 2.2-1.2 4.5-2.1 5.1-2.1.6 0 2.8 1.6 4.9 3.5 3.2 2.9 4.7 3.5 8.2 3.5 5.1 0 9.1-2.4 6.7-3.9-.8-.6-3.7-1.8-6.5-2.7-2.7-.8-6.4-2.7-8.2-4-3.4-2.6-5.8-3-6.8-1.4zM419.1 137.6c-2.6 7.2-8.9 11.3-21.1 13.8-1.4.2.9.4 5 .2 12-.3 17.6-4 18.7-12.4.7-5.1-1-6.1-2.6-1.6zM340.7 155.8c-.2.4-1 2.4-1.7 4.5-1 3.2-.9 4.2.4 6.2.9 1.4 2 2.5 2.5 2.5 1.4 0 6.3-8.1 5.7-9.5-.6-1.7-6.3-4.8-6.9-3.7zM349 170.5c0 .9-.9 1.9-2 2.2-2.4.6-2.6 1.9-.4 2.7 2.3.9 6.6-2.1 6.2-4.2-.4-2.3-3.8-2.9-3.8-.7zM344 181.6c-.6 1.4-1 3.6-1 5 0 1.6-.8 2.8-2.2 3.4-1.3.5-3.4 1.8-4.7 2.8-2 1.6-2.2 2.2-1.2 4 1.7 3.2 10.3 3.1 13.4-.1 1.3-1.2 3.5-2.8 5-3.4 3-1.4 3.5-3.1 1.1-4-1.1-.4-1.4-1.4-1-3.4.4-2.2 0-3.2-2.1-4.9-3.5-2.7-6.1-2.6-7.3.6zM327.2 194.2l.3 5.3-4.8.9c-4.6.8-4.9 1-4.5 3.6.4 2.7.3 2.7-1.8 1.3-2.1-1.3-2.4-1.3-3.4.7-.6 1.2-1 2.9-.8 3.8.2.9-.5 2.5-1.4 3.4-2.9 2.9-2 12.8 1 11.7 1.9-.7 8.2-9.1 8.2-10.9 0-1.3.5-1.7 2-1.3 2 .5 2.3.1 3.4-5 .4-1.7 1.3-2.7 2.5-2.7 3.1 0 4.6-2.6 3.1-5.5-.7-1.3-1-3.1-.7-3.9.7-1.8-1.1-6.6-2.6-6.6-.5 0-.7 2.4-.5 5.2zM499.5 201.1c-2.2.5-6.7 1.9-10 3-20 7.2-26.4 23.7-13.7 35.8 5.5 5.4 13.2 8.9 29.3 13.6 14.3 4.2 21.5 7.8 24.7 12.5 5.8 8.6-1 18.9-14.7 22-10.1 2.3-31.8.1-42.1-4.4-1.2-.5-2.2.6-3.8 3.9-1.2 2.5-2.2 5-2.2 5.4 0 1.1 7 3.5 15.5 5.2 7.5 1.6 31.3 1.7 38.1.2 13.6-3.1 23.3-9.3 27.4-17.4 2.7-5.2 2.7-13.7 0-19-3.8-7.4-15-13.7-33.6-18.8-18.7-5.3-26.4-10.4-26.4-17.8 0-12.9 20.7-18.6 45-12.3l7 1.8 2-4.5c1.1-2.5 2-4.9 2-5.4 0-1-5.9-2.7-13.9-4-6.9-1.1-25.2-1-30.6.2zM63.5 201.7c-2.7.3-5.5.9-6.2 1.5-.9.7-1.2 11.8-1.3 47.8v46.9l5.5.6c9.9 1.3 46.2-.1 54-1.9 10.2-2.5 16.8-6 21.9-11.6 12-13.5 6.5-28.6-13.1-36.1-3.5-1.3-6.3-2.7-6.3-3.1 0-.3 1.2-.9 2.8-1.2 3.7-.9 12.1-7.3 14.9-11.5 4.4-6.5 2.5-16.7-4-22.2-3.9-3.3-12-6.6-20.1-8.3-7.4-1.5-33.4-2-48.1-.9zm42 10.5c10.3 2.7 15.2 7.8 14.2 15-.7 4.9-4.5 9.3-10.7 12.1-3.8 1.8-7 2.2-19.7 2.5l-15.3.4v-10.3c0-5.7.3-12.7.6-15.6l.7-5.2 4.6-.4c6.6-.6 20.9.2 25.6 1.5zm-3.5 40.9c21 3.4 29.3 17.2 17 28.3-6.1 5.5-12.8 7.1-30 7.1H74.5l-.3-11c-.2-6.1 0-14.3.3-18.3l.7-7.2h10.1c5.6 0 13.1.5 16.7 1.1zM241.9 225.7c-6.7 13.7-14.5 29.7-17.4 35.8-2.9 6-7.7 15.9-10.7 22-3 6-5.7 11.8-6.1 12.7-.6 1.6.2 1.8 8.6 1.8h9.2l7.2-15 7.1-15h49l7.3 15 7.3 15h9.3c5.1 0 9.3-.3 9.3-.7 0-.3-9.9-20.9-22.1-45.7-12.2-24.8-22.6-46.3-23.1-47.9l-1-2.7h-21.9l-12 24.7zm34.5 14.7c4.2 8.7 7.6 16.3 7.6 16.7 0 .5-9 .9-20 .9s-20-.2-20-.5c0-.2 3.6-8 8.1-17.2 4.4-9.3 9-19.2 10.1-22.2l2.1-5.4 2.2 5.9c1.2 3.2 5.7 13.1 9.9 21.8zM362 201.7c-1.4.2-4 .6-5.7.9l-3.3.5V298h18l.2-20.8.3-20.7 5.9-.3c8.7-.5 21.9 1.4 26.5 3.7 5.8 3 8.6 7.3 13.1 20.6 6.5 18.7 5.4 17.5 16 17.5 5.6 0 9-.4 9-1s-.8-2.7-1.9-4.8c-1-2-3.5-8.7-5.5-14.7-4.9-14.2-8.3-19-17-23.6l-3.9-2.1 5.5-2.2c12.5-5.1 18.8-12.8 18.8-22.8-.1-12.6-10.8-21.3-30.4-24.8-5.5-.9-39.9-1.2-45.6-.3zm44.3 11.3c10.9 3.4 16.1 11.6 12.8 20.3-1.6 4.2-8.1 9.6-13.5 11.3-3.2 1-10.7 1.8-19.9 2.1l-14.7.6.2-17.9.3-17.9 5.5-.6c8.7-1 22.5 0 29.3 2.1zM172.9 284.6c-3.5 3.7-3.3 9.8.4 13 3.2 2.8 5.4 3 10.1 1 3.7-1.5 6.2-6.7 5-10.2-2.4-6.7-10.8-8.8-15.5-3.8zM60.5 317c45.3 4.3 430.2 4.3 471.5 0 4.1-.4-102.1-.7-236-.7s-239.9.3-235.5.7zM80.5 335c-.7 1.1-5.5 39.5-5.5 43.7 0 3.5.8 3.9 6.7 2.7l2.9-.6 1.9-19.4 1.9-19.4 6.1 11.8c3.5 6.4 8.2 15.1 10.7 19.2 4.2 7.2 4.5 7.5 8.4 7.8l4.1.3 11.4-19c6.3-10.5 11.7-19 12.2-19.1.4 0 .7 2.8.8 6.2 0 7.7 2.4 31.6 3.2 32.4.3.3 2.6.2 5.1-.1 4.5-.7 4.6-.8 4.1-3.9-.3-1.7-1.4-11.8-2.5-22.4-1.1-10.7-2.3-19.8-2.6-20.3-.3-.5-3.1-.9-6.4-.9h-5.8l-3.5 5.2c-5.8 8.8-11.3 18.1-15.2 25.7-2.1 3.9-3.8 7.1-4 6.9-.1-.2-2.2-4.1-4.7-8.8-2.5-4.7-7.2-13-10.5-18.5l-5.9-10-6.2-.1c-3.4-.1-6.4.2-6.7.6zM205.7 334.7c-.4.3-.7 11-.7 23.7v23.1l18.2-.2c10.1-.2 20-.3 22.1-.3 3.3 0 3.7-.3 3.7-2.5V376h-34.2l.4-8.3.3-8.2 15.3-.3c15.2-.3 15.3-.3 15-2.5-.3-2.1-.6-2.2-15.5-2.5l-15.3-.3V340h13.8c16.4 0 18.2-.4 18.2-3.6V334h-20.3c-11.2 0-20.7.3-21 .7zM300.2 334.7l-3.2.4.2 23.2.3 23.2 10.9.3c21.8.7 34-2.8 37.3-10.6 2.2-5.4.1-9.2-7.2-12.8l-5.7-2.7 2.9-1.3c13.1-6 9.3-16.7-6.9-19.4-6.1-.9-21.8-1.1-28.6-.3zm29.5 7c1.9 1.4 2.8 2.9 2.8 4.9 0 2.4-.7 3.3-4.5 5.1-3.5 1.8-6.1 2.3-12.7 2.3H307v-5.9c0-9.5-.1-9.4 10.6-8.9 7.5.3 9.9.8 12.1 2.5zm-2 18.9c4.8 1.6 8.3 4.6 8.3 7 0 .7-1.1 2.6-2.5 4.2-3 3.6-9.1 5.2-19.6 5.2h-7l.2-9 .2-9h7.8c4.6 0 9.8.7 12.6 1.6zM395.7 334.6c-.4.4-.7 11-.7 23.6V381h44v-5h-34.1l.3-8.3.3-8.2 15.3-.3c15.2-.3 15.3-.3 15-2.5-.3-2.1-.6-2.2-15.5-2.5l-15.3-.3V340h13.8c16.2 0 18.4-.4 18-3.4-.3-2-.8-2.1-20.4-2.4-11-.1-20.3.1-20.7.4zM487.2 357.6l.3 23.7 18-.1c9.9-.1 19.7-.1 21.8-.2 3.4 0 3.8-.3 3.5-2.3-.3-2.2-.5-2.2-17-2.5L497 376l-.2-20.8-.3-20.7-4.8-.3-4.7-.3.2 23.7z"/></g></svg><svg fill="none" viewBox="0 0 88 88" id="telegram" xmlns="http://www.w3.org/2000/svg"><g clip-path="url(#ga)"><rect x=".273" y=".273" width="87.516" height="87.516" rx="17.503" fill="#fff"/><path fill-rule="evenodd" clip-rule="evenodd" d="M87.789.274H.273v87.515H87.79V.274ZM44.312 68.22c13.205 0 23.91-10.705 23.91-23.91 0-13.204-10.705-23.909-23.91-23.909s-23.91 10.705-23.91 23.91 10.705 23.91 23.91 23.91Zm-13.66-24.433s11.843-5.039 15.95-6.813c1.575-.71 6.915-2.98 6.915-2.98s2.465-.994 2.26 1.419c-.05.717-.35 2.73-.718 5.21-.142.954-.294 1.977-.446 3.022-.822 5.323-1.712 11.142-1.712 11.142s-.137 1.632-1.3 1.916c-1.164.284-3.081-.993-3.424-1.277-.059-.047-.334-.233-.746-.512h-.001c-1.49-1.01-4.773-3.234-6.167-4.456-.48-.426-1.027-1.278.068-2.271 2.465-2.342 5.409-5.252 7.189-7.097.821-.852 1.643-2.839-1.78-.426-4.86 3.478-9.653 6.742-9.653 6.742s-1.096.71-3.15.071c-2.053-.638-4.45-1.49-4.45-1.49s-1.642-1.065 1.165-2.2Z" fill="#34AADF"/></g><defs><clipPath id="ga"><rect x=".273" y=".273" width="87.516" height="87.516" rx="17.503" fill="#fff"/></clipPath></defs></svg><svg fill="none" viewBox="0 0 32 32" id="tiktok" xmlns="http://www.w3.org/2000/svg"><path d="M0 5a5 5 0 0 1 5-5h22a5 5 0 0 1 5 5v22a5 5 0 0 1-5 5H5a5 5 0 0 1-5-5V5Z" fill="#000"/><path d="M14.498 14.3v-.623a4.847 4.847 0 0 0-3.428 8.774 4.83 4.83 0 0 1-1.302-3.303 4.852 4.852 0 0 1 4.73-4.848Z" fill="#25F4EE"/><path d="M14.616 21.362c1.191 0 2.166-.95 2.208-2.132l.004-10.56h1.928a3.779 3.779 0 0 1-.06-.67h-2.633l-.003 10.561a2.215 2.215 0 0 1-2.209 2.132c-.37 0-.718-.092-1.028-.256a2.198 2.198 0 0 0 1.793.925ZM22.358 12.254v-.588c-.736 0-1.419-.217-1.995-.594a3.659 3.659 0 0 0 1.995 1.182Z" fill="#25F4EE"/><path d="M20.363 11.072a3.641 3.641 0 0 1-.9-2.403h-.704a3.65 3.65 0 0 0 1.604 2.403ZM13.848 16.262c-1.22 0-2.213.993-2.213 2.214 0 .85.484 1.59 1.188 1.96a2.192 2.192 0 0 1-.42-1.291c0-1.221.993-2.214 2.213-2.214.227 0 .448.039.654.103v-2.691a4.92 4.92 0 0 0-.654-.046c-.04 0-.075.003-.114.003v2.065a2.226 2.226 0 0 0-.655-.103Z" fill="#FE2C55"/><path d="M22.358 12.254V14.3a6.264 6.264 0 0 1-3.663-1.178v5.357a4.855 4.855 0 0 1-4.848 4.852 4.827 4.827 0 0 1-2.777-.88A4.839 4.839 0 0 0 14.616 24a4.855 4.855 0 0 0 4.847-4.852v-5.357a6.264 6.264 0 0 0 3.663 1.178v-2.633c-.266 0-.522-.029-.768-.082Z" fill="#FE2C55"/><path d="M18.695 18.48v-5.358a6.264 6.264 0 0 0 3.663 1.178v-2.046a3.659 3.659 0 0 1-1.995-1.182 3.681 3.681 0 0 1-1.608-2.403h-1.927l-.004 10.561a2.215 2.215 0 0 1-2.208 2.132c-.74 0-1.39-.366-1.796-.921a2.222 2.222 0 0 1-1.188-1.962c0-1.22.992-2.214 2.212-2.214.228 0 .448.04.654.103v-2.064a4.846 4.846 0 0 0-3.428 8.148c.786.551 1.746.879 2.777.879a4.858 4.858 0 0 0 4.848-4.852Z" fill="#fff"/></svg><svg fill="none" viewBox="0 0 32 32" id="tiktok-white" xmlns="http://www.w3.org/2000/svg"><path d="M0 5a5 5 0 0 1 5-5h22a5 5 0 0 1 5 5v22a5 5 0 0 1-5 5H5a5 5 0 0 1-5-5V5Z" fill="#fff"/><path d="M14.498 14.3v-.623a4.847 4.847 0 0 0-3.428 8.774 4.83 4.83 0 0 1-1.302-3.303 4.852 4.852 0 0 1 4.73-4.848Z" fill="#25F4EE"/><path d="M14.616 21.362c1.191 0 2.166-.95 2.208-2.132l.004-10.56h1.928a3.779 3.779 0 0 1-.06-.67h-2.633l-.003 10.561a2.215 2.215 0 0 1-2.209 2.132c-.37 0-.718-.092-1.028-.256a2.198 2.198 0 0 0 1.793.925ZM22.358 12.254v-.588c-.736 0-1.419-.217-1.995-.594a3.659 3.659 0 0 0 1.995 1.182Z" fill="#25F4EE"/><path d="M20.363 11.072a3.641 3.641 0 0 1-.9-2.403h-.704a3.65 3.65 0 0 0 1.604 2.403ZM13.848 16.262c-1.22 0-2.213.993-2.213 2.214 0 .85.484 1.59 1.188 1.96a2.192 2.192 0 0 1-.42-1.291c0-1.221.993-2.214 2.213-2.214.227 0 .448.039.654.103v-2.691a4.92 4.92 0 0 0-.654-.046c-.04 0-.075.003-.114.003v2.065a2.226 2.226 0 0 0-.655-.103Z" fill="#FE2C55"/><path d="M22.358 12.254V14.3a6.264 6.264 0 0 1-3.663-1.178v5.357a4.855 4.855 0 0 1-4.848 4.852 4.827 4.827 0 0 1-2.777-.88A4.839 4.839 0 0 0 14.616 24a4.855 4.855 0 0 0 4.847-4.852v-5.357a6.264 6.264 0 0 0 3.663 1.178v-2.633c-.266 0-.522-.029-.768-.082Z" fill="#FE2C55"/><path d="M18.695 18.48v-5.358a6.264 6.264 0 0 0 3.663 1.178v-2.046a3.659 3.659 0 0 1-1.995-1.182 3.681 3.681 0 0 1-1.608-2.403h-1.927l-.004 10.561a2.215 2.215 0 0 1-2.208 2.132c-.74 0-1.39-.366-1.796-.921a2.222 2.222 0 0 1-1.188-1.962c0-1.22.992-2.214 2.212-2.214.228 0 .448.04.654.103v-2.064a4.846 4.846 0 0 0-3.428 8.148c.786.551 1.746.879 2.777.879a4.858 4.858 0 0 0 4.848-4.852Z" fill="#000"/></svg></svg>