<svg width="88" height="89" viewBox="0 0 88 89" fill="none" xmlns="http://www.w3.org/2000/svg">
<g clip-path="url(#clip0_315_1673)">
<rect x="0.460938" y="0.546967" width="87.5156" height="87.5156" rx="17.5031" fill="white"/>
<path d="M0.460815 0.546936H87.9764V88.0626H0.460815V0.546936Z" fill="#0C0C0C"/>
<path fill-rule="evenodd" clip-rule="evenodd" d="M53.0028 38.6639C55.6866 40.5718 58.9006 41.5911 62.1933 41.5788V35.053C61.546 35.0548 60.9004 34.9855 60.2682 34.8463V40.0452C56.968 40.0511 53.7494 39.02 51.0668 37.0977V50.5192C51.0587 52.7215 50.4548 54.8806 49.319 56.7675C48.1832 58.6544 46.558 60.1987 44.6157 61.2368C42.6733 62.2749 40.4862 62.768 38.2863 62.6638C36.0865 62.5596 33.9558 61.862 32.1202 60.645C33.8181 62.3629 35.9875 63.5383 38.3538 64.0224C40.7201 64.5065 43.1768 64.2775 45.4129 63.3644C47.649 62.4514 49.5638 60.8953 50.9149 58.8933C52.266 56.8912 52.9927 54.5333 53.0028 52.118V38.6639ZM55.3847 32.0076C54.02 30.5283 53.1825 28.6393 53.0028 26.6347V25.7863H51.1756C51.4015 27.0606 51.893 28.273 52.6181 29.3449C53.3433 30.4167 54.286 31.3239 55.3847 32.0076ZM36.3511 55.4788C35.7178 54.6506 35.3297 53.6613 35.231 52.6234C35.1322 51.5855 35.3268 50.5408 35.7926 49.6081C36.2584 48.6753 36.9767 47.8921 37.8657 47.3475C38.7547 46.8029 39.7788 46.5188 40.8213 46.5275C41.3969 46.5274 41.9691 46.6154 42.518 46.7886V40.0452C41.8764 39.9602 41.2292 39.9239 40.582 39.9365V45.1789C39.2455 44.7564 37.7988 44.8524 36.5299 45.448C35.2609 46.0435 34.2626 47.0949 33.7335 48.3929C33.2044 49.691 33.1833 51.1407 33.6743 52.4536C34.1654 53.7665 35.1327 54.8465 36.3838 55.4788H36.3511Z" fill="#EE1D52"/>
<path fill-rule="evenodd" clip-rule="evenodd" d="M51.0659 37.0542C53.7484 38.9765 56.9671 40.0076 60.2673 40.0017V34.8028C58.387 34.4053 56.6789 33.4276 55.3838 32.0076C54.285 31.3239 53.3424 30.4167 52.6172 29.3449C51.892 28.273 51.4005 27.0606 51.1747 25.7863H46.3673V52.118C46.3628 53.2835 45.9935 54.4184 45.3111 55.3633C44.6287 56.3081 43.6675 57.0156 42.5625 57.3863C41.4575 57.7571 40.2642 57.7725 39.15 57.4303C38.0358 57.0882 37.0567 56.4058 36.3502 55.4788C35.2305 54.9138 34.3338 53.9881 33.8048 52.851C33.2757 51.7139 33.1452 50.4317 33.4343 49.2113C33.7234 47.991 34.4152 46.9036 35.3981 46.1246C36.3809 45.3456 37.5976 44.9205 38.8518 44.9178C39.4272 44.9197 39.9991 45.0077 40.5485 45.1789V39.9365C38.1748 39.9934 35.8694 40.7423 33.9153 42.091C31.9612 43.4397 30.4435 45.3296 29.5483 47.5288C28.6532 49.7279 28.4196 52.1406 28.8764 54.4706C29.3331 56.8006 30.4602 58.9466 32.1193 60.645C33.9552 61.8708 36.0893 62.5756 38.2941 62.6843C40.4989 62.7931 42.6919 62.3017 44.6396 61.2626C46.5872 60.2235 48.2165 58.6755 49.354 56.7836C50.4914 54.8917 51.0943 52.7267 51.0985 50.5192L51.0659 37.0542Z" fill="#E3E3E3"/>
<path fill-rule="evenodd" clip-rule="evenodd" d="M60.2673 34.8028L60.2679 33.3993C58.5411 33.4067 56.8481 32.9244 55.3847 32.0076C56.6765 33.4317 58.3851 34.4102 60.2673 34.8028ZM51.1756 25.7863C51.1756 25.5362 51.0991 25.2747 51.0665 25.0245V24.1762H44.4319V50.5187C44.4262 51.9937 43.8354 53.4062 42.7894 54.4461C41.7433 55.4861 40.3274 56.0685 38.8524 56.0656C37.9838 56.07 37.127 55.8692 36.3511 55.4788C37.0577 56.4058 38.0358 57.0882 39.15 57.4303C40.2642 57.7725 41.4575 57.7571 42.5625 57.3863C43.6675 57.0156 44.6287 56.3081 45.3111 55.3633C45.9935 54.4184 46.3628 53.2835 46.3673 52.118V25.7863H51.1756ZM40.5491 39.9251V38.4351C37.819 38.0642 35.0438 38.6289 32.6757 40.0372C30.3077 41.4455 28.4864 43.6143 27.5088 46.1902C26.5312 48.7661 26.4548 51.5972 27.2922 54.222C28.1295 56.8468 29.8315 59.1111 32.1202 60.645C30.4737 58.9426 29.3582 56.7971 28.9108 54.4713C28.4635 52.1455 28.7031 49.7398 29.6006 47.548C30.4981 45.3562 32.0145 43.4733 33.9646 42.1292C35.9147 40.7852 38.214 40.0382 40.5817 39.9795L40.5491 39.9251Z" fill="#69C9D0"/>
</g>
<defs>
<clipPath id="clip0_315_1673">
<rect x="0.460938" y="0.546967" width="87.5156" height="87.5156" rx="17.5031" fill="white"/>
</clipPath>
</defs>
</svg>
